<svg width="19" height="19" viewBox="0 0 19 19" fill="none" xmlns="http://www.w3.org/2000/svg">
<path d="M16.693 16.3888V4.30352C16.693 3.90287 16.5339 3.51862 16.2506 3.23532C15.9673 2.95201 15.583 2.79285 15.1824 2.79285H4.60771C4.20706 2.79285 3.82281 2.95201 3.53951 3.23532C3.25621 3.51862 3.09705 3.90287 3.09705 4.30352V11.8568C3.09705 12.2575 3.25621 12.6417 3.53951 12.925C3.82281 13.2083 4.20706 13.3675 4.60771 13.3675H12.161C12.4881 13.3675 12.8061 13.4732 13.0674 13.6696L16.693 16.3888ZM15.1824 4.30352V13.3675L13.5705 12.159C13.3091 11.9626 12.9911 11.8561 12.6641 11.8568H4.60771V4.30352H15.1824ZM6.87371 8.83551H12.9164V7.32485H6.87371V8.83551Z" fill="white"/>
</svg>
