<svg width="16" height="17" viewBox="0 0 16 17" fill="none" xmlns="http://www.w3.org/2000/svg">
<path d="M9.27034 16.0223H6.52093C6.34866 16.0223 6.18156 15.9634 6.04734 15.8555C5.91312 15.7475 5.81984 15.5969 5.78297 15.4286L5.47555 14.0055C5.06545 13.8258 4.67659 13.6011 4.31612 13.3356L2.92857 13.7774C2.76433 13.8298 2.58712 13.8244 2.42637 13.7622C2.26561 13.6999 2.13098 13.5846 2.04483 13.4353L0.667106 11.0552C0.581864 10.9058 0.549866 10.7318 0.576347 10.5618C0.602829 10.3918 0.686223 10.2358 0.812885 10.1194L1.88923 9.13742C1.84029 8.69262 1.84029 8.24378 1.88923 7.79897L0.812885 6.81931C0.686044 6.70282 0.602536 6.54669 0.57605 6.37652C0.549564 6.20635 0.58167 6.03223 0.667106 5.8827L2.04181 3.50114C2.12796 3.35182 2.26259 3.23646 2.42334 3.17422C2.5841 3.11198 2.76131 3.1066 2.92555 3.15897L4.31309 3.60084C4.4974 3.46488 4.68925 3.33798 4.88715 3.22317C5.07825 3.11592 5.27463 3.01848 5.47555 2.93162L5.78373 1.51008C5.82041 1.34179 5.91352 1.19109 6.0476 1.08298C6.18168 0.97486 6.34869 0.915815 6.52093 0.915634H9.27034C9.44258 0.915815 9.60959 0.97486 9.74367 1.08298C9.87775 1.19109 9.97086 1.34179 10.0075 1.51008L10.3187 2.93237C10.7286 3.11206 11.1172 3.33677 11.4774 3.60235L12.8657 3.16048C13.0299 3.1083 13.2069 3.11378 13.3675 3.17601C13.5281 3.23824 13.6626 3.35349 13.7487 3.50265L15.1234 5.88421C15.2986 6.19163 15.2382 6.58063 14.9776 6.82007L13.9013 7.802C13.9502 8.2468 13.9502 8.69564 13.9013 9.14044L14.9776 10.1224C15.2382 10.3626 15.2986 10.7508 15.1234 11.0582L13.7487 13.4398C13.6626 13.5891 13.5279 13.7045 13.3672 13.7667C13.2064 13.829 13.0292 13.8343 12.865 13.782L11.4774 13.3401C11.1172 13.6055 10.7286 13.8299 10.3187 14.0093L10.0075 15.4286C9.97071 15.5967 9.87754 15.7473 9.74347 15.8552C9.6094 15.9632 9.44248 16.0221 9.27034 16.0223ZM4.58728 11.6633L5.20665 12.1165C5.34639 12.2192 5.49141 12.3136 5.64248 12.3997C5.78448 12.482 5.9295 12.5561 6.07982 12.6233L6.78454 12.9322L7.12973 14.5116H8.66305L9.00824 12.9315L9.71296 12.6225C10.0204 12.4866 10.3127 12.3181 10.5839 12.1195L11.2032 11.6663L12.7456 12.1572L13.5123 10.8294L12.3166 9.73942L12.4012 8.97503C12.439 8.64042 12.439 8.30278 12.4012 7.96892L12.3166 7.20453L13.513 6.11232L12.7456 4.78369L11.204 5.27466L10.5839 4.82146C10.3125 4.62182 10.0206 4.4519 9.71296 4.31463L9.00824 4.0057L8.66305 2.4263H7.12973L6.78228 4.00645L6.07982 4.31463C5.77178 4.44954 5.47969 4.61826 5.20892 4.81768L4.58879 5.27088L3.04791 4.77991L2.27974 6.11232L3.47543 7.20075L3.39083 7.9659C3.35307 8.30052 3.35307 8.63815 3.39083 8.97201L3.47543 9.7364L2.27974 10.8263L3.0464 12.1542L4.58728 11.6633ZM7.89261 11.4903C7.09131 11.4903 6.32282 11.172 5.75621 10.6054C5.1896 10.0387 4.87128 9.27026 4.87128 8.46895C4.87128 7.66765 5.1896 6.89916 5.75621 6.33255C6.32282 5.76594 7.09131 5.44763 7.89261 5.44763C8.69392 5.44763 9.46241 5.76594 10.029 6.33255C10.5956 6.89916 10.9139 7.66765 10.9139 8.46895C10.9139 9.27026 10.5956 10.0387 10.029 10.6054C9.46241 11.172 8.69392 11.4903 7.89261 11.4903ZM7.89261 6.95829C7.59679 6.95859 7.30757 7.04574 7.06083 7.20892C6.81409 7.3721 6.62068 7.60413 6.50462 7.87623C6.38855 8.14833 6.35492 8.44852 6.40791 8.73956C6.4609 9.03059 6.59818 9.29967 6.8027 9.5134C7.00723 9.72712 7.27 9.8761 7.55842 9.94184C7.84685 10.0076 8.14823 9.9872 8.42517 9.88321C8.70211 9.77922 8.94243 9.59622 9.1163 9.35689C9.29018 9.11757 9.38997 8.83246 9.40328 8.53693V8.83907V8.46895C9.40328 8.0683 9.24412 7.68406 8.96081 7.40075C8.67751 7.11745 8.29327 6.95829 7.89261 6.95829Z" fill="white"/>
</svg>
