<svg width="19" height="19" viewBox="0 0 19 19" fill="none" xmlns="http://www.w3.org/2000/svg">
<path d="M15.9375 3.91475H9.45224L8.16289 2.6254C8.09287 2.55512 8.00963 2.49938 7.91798 2.4614C7.82633 2.42342 7.72808 2.40394 7.62887 2.40408H3.85221C3.01908 2.40408 2.34155 3.08162 2.34155 3.91475V14.4894C2.34155 15.3225 3.01908 16.0001 3.85221 16.0001H15.9375C16.7707 16.0001 17.4482 15.3225 17.4482 14.4894V5.42541C17.4482 4.59228 16.7707 3.91475 15.9375 3.91475ZM3.85221 14.4894V5.42541H15.9375L15.939 14.4894H3.85221Z" fill="white"/>
<path d="M6.77838 9.20207H12.821V10.7127H6.77838V9.20207Z" fill="white"/>
</svg>
